<svg t="1736670859557" class="icon" viewBox="0 0 1024 1024" version="1.1" xmlns="http://www.w3.org/2000/svg" p-id="23372" width="200" height="200"><path d="M962.423163 380.864143c-18.244989-63.857461-107.18931-100.347439-225.781738-104.908686-9.122494-118.592428-50.173719-205.256125-116.311804-221.22049-63.857461-15.964365-136.837416 38.770601-198.414254 136.837416C319.287305 141.398664 228.062361 132.276169 182.449889 177.888641c-47.893096 47.893096-38.770601 143.679287 18.244989 253.149221-102.628062 68.418708-157.363029 148.240535-139.118041 212.097995 18.244989 63.857461 107.18931 100.347439 225.781738 104.908686 9.122494 118.592428 50.173719 205.256125 116.311804 221.22049 63.857461 15.964365 136.837416-38.770601 198.414254-136.837416 102.628062 52.454343 193.853007 61.576837 241.746102 13.683742 47.893096-47.893096 38.770601-143.679287-18.244989-253.149221 100.347439-68.418708 157.363029-148.240535 136.837417-212.097995z m-244.026726 152.801781c9.122494 13.683742 18.244989 25.08686 25.086859 38.770602l-41.051225 20.525612c2.280624-11.403118 6.841871-20.525612 9.122495-31.92873l6.841871-27.367484z m-66.138085 11.403118c-6.841871 27.367483-13.683742 52.454343-22.806236 77.541203-25.08686 9.122494-50.173719 18.244989-77.541203 25.08686-27.367483 9.122494-54.734967 13.683742-82.10245 20.525612-20.525612-18.244989-41.051225-36.489978-61.576837-57.01559-18.244989-18.244989-36.489978-38.770601-52.454343-57.01559 4.561247-25.08686 9.122494-50.173719 15.964365-77.541203 6.841871-27.367483 13.683742-52.454343 22.806236-77.541203 25.08686-9.122494 50.173719-18.244989 77.541203-25.086859 27.367483-9.122494 54.734967-13.683742 82.10245-20.525613 20.525612 18.244989 41.051225 36.489978 61.576837 57.01559 18.244989 18.244989 36.489978 38.770601 52.454343 57.015591-4.561247 27.367483-11.403118 52.454343-15.964365 77.541202z m-50.173719 152.801782c-6.841871 18.244989-15.964365 34.209354-22.806237 50.173719-15.964365-9.122494-29.648107-20.525612-45.612472-31.92873 11.403118-2.280624 25.08686-6.841871 36.489978-9.122495 9.122494 0 20.525612-4.561247 31.928731-9.122494z m-255.429845-61.576837c6.841871 6.841871 11.403118 13.683742 18.244989 20.525612l27.367484 27.367483c-15.964365 2.280624-31.928731 4.561247-47.893096 4.561248 0-18.244989 2.280624-34.209354 2.280623-52.454343z m-41.051225-145.959911c-9.122494-13.683742-18.244989-25.08686-25.086859-38.770602l41.051225-20.525612c-2.280624 11.403118-6.841871 20.525612-9.122495 31.92873l-6.841871 27.367484z m116.311804-164.2049c6.841871-18.244989 15.964365-34.209354 22.806237-50.173719 15.964365 9.122494 29.648107 20.525612 45.612472 31.92873-11.403118 2.280624-25.08686 6.841871-36.489978 9.122495-9.122494 0-20.525612 4.561247-31.928731 9.122494z m237.184856 41.051225l-27.367484-27.367483c15.964365-2.280624 31.928731-4.561247 47.893096-4.561248 0 15.964365 0 34.209354-2.280623 50.17372-6.841871-4.561247-13.683742-11.403118-18.244989-18.244989zM604.365256 125.434298c41.051225 9.122494 66.138085 66.138085 72.979956 150.521159-34.209354 2.280624-70.699332 6.841871-107.18931 11.403118-31.928731-25.08686-63.857461-47.893096-93.505568-66.138085 41.051225-68.418708 88.944321-104.908686 127.714922-95.786192zM232.623608 228.062361c29.648107-29.648107 88.944321-20.525612 159.643653 15.964365-18.244989 34.209354-34.209354 70.699332-47.893096 109.469933-34.209354 13.683742-66.138085 29.648107-95.786192 45.612472-36.489978-77.541203-45.612472-139.11804-15.964365-171.04677zM129.995546 622.610245c-11.403118-41.051225 27.367483-91.224944 98.066815-139.11804 18.244989 29.648107 38.770601 59.296214 63.857461 88.944321-4.561247 41.051225-9.122494 79.821826-9.122495 116.311804-82.10245-2.280624-141.398664-25.08686-152.801781-66.138085z m289.639198 275.955457c-41.051225-9.122494-66.138085-66.138085-72.979956-150.521159 34.209354-2.280624 70.699332-6.841871 107.18931-11.403118 31.928731 25.08686 63.857461 47.893096 93.505568 66.138085-41.051225 68.418708-88.944321 104.908686-127.714922 95.786192z m371.741648-102.628063c-29.648107 29.648107-88.944321 20.525612-159.643653-15.964365 18.244989-34.209354 34.209354-70.699332 47.893096-109.469933 34.209354-13.683742 66.138085-29.648107 95.786192-45.612472 36.489978 77.541203 45.612472 139.11804 15.964365 171.04677z m4.561247-255.429844c-18.244989-29.648107-38.770601-59.296214-63.857461-88.944321 4.561247-41.051225 9.122494-79.821826 9.122495-116.311804 84.383073 2.280624 141.398664 25.08686 152.801781 66.138085 11.403118 41.051225-27.367483 91.224944-98.066815 139.11804z" p-id="23373" fill="#1296db"></path></svg>